<svg id="visual" viewBox="0 0 900 600" width="900" height="600" xmlns="http://www.w3.org/2000/svg" xmlns:xlink="http://www.w3.org/1999/xlink" version="1.1"><rect x="0" y="0" width="900" height="600" fill="#171717"></rect><path d="M0 375L21.5 374.2C43 373.3 86 371.7 128.8 379.7C171.7 387.7 214.3 405.3 257.2 414.5C300 423.7 343 424.3 385.8 415.2C428.7 406 471.3 387 514.2 379.8C557 372.7 600 377.3 642.8 388.5C685.7 399.7 728.3 417.3 771.2 424.5C814 431.7 857 428.3 878.5 426.7L900 425L900 601L878.5 601C857 601 814 601 771.2 601C728.3 601 685.7 601 642.8 601C600 601 557 601 514.2 601C471.3 601 428.7 601 385.8 601C343 601 300 601 257.2 601C214.3 601 171.7 601 128.8 601C86 601 43 601 21.5 601L0 601Z" fill="#715df2"></path><path d="M0 471L21.5 460.8C43 450.7 86 430.3 128.8 430.7C171.7 431 214.3 452 257.2 452C300 452 343 431 385.8 424.5C428.7 418 471.3 426 514.2 433.8C557 441.7 600 449.3 642.8 443.3C685.7 437.3 728.3 417.7 771.2 411.7C814 405.7 857 413.3 878.5 417.2L900 421L900 601L878.5 601C857 601 814 601 771.2 601C728.3 601 685.7 601 642.8 601C600 601 557 601 514.2 601C471.3 601 428.7 601 385.8 601C343 601 300 601 257.2 601C214.3 601 171.7 601 128.8 601C86 601 43 601 21.5 601L0 601Z" fill="#6c50f6"></path><path d="M0 481L21.5 484C43 487 86 493 128.8 496.3C171.7 499.7 214.3 500.3 257.2 500.3C300 500.3 343 499.7 385.8 494.2C428.7 488.7 471.3 478.3 514.2 469C557 459.7 600 451.3 642.8 452.3C685.7 453.3 728.3 463.7 771.2 468C814 472.3 857 470.7 878.5 469.8L900 469L900 601L878.5 601C857 601 814 601 771.2 601C728.3 601 685.7 601 642.8 601C600 601 557 601 514.2 601C471.3 601 428.7 601 385.8 601C343 601 300 601 257.2 601C214.3 601 171.7 601 128.8 601C86 601 43 601 21.5 601L0 601Z" fill="#6940fa"></path><path d="M0 518L21.5 520.7C43 523.3 86 528.7 128.8 526.2C171.7 523.7 214.3 513.3 257.2 506.5C300 499.7 343 496.3 385.8 496.2C428.7 496 471.3 499 514.2 504.3C557 509.7 600 517.3 642.8 521.8C685.7 526.3 728.3 527.7 771.2 530.2C814 532.7 857 536.3 878.5 538.2L900 540L900 601L878.5 601C857 601 814 601 771.2 601C728.3 601 685.7 601 642.8 601C600 601 557 601 514.2 601C471.3 601 428.7 601 385.8 601C343 601 300 601 257.2 601C214.3 601 171.7 601 128.8 601C86 601 43 601 21.5 601L0 601Z" fill="#672bfd"></path><path d="M0 572L21.5 564C43 556 86 540 128.8 535C171.7 530 214.3 536 257.2 540C300 544 343 546 385.8 547.2C428.7 548.3 471.3 548.7 514.2 551.8C557 555 600 561 642.8 560.3C685.7 559.7 728.3 552.3 771.2 546.8C814 541.3 857 537.7 878.5 535.8L900 534L900 601L878.5 601C857 601 814 601 771.2 601C728.3 601 685.7 601 642.8 601C600 601 557 601 514.2 601C471.3 601 428.7 601 385.8 601C343 601 300 601 257.2 601C214.3 601 171.7 601 128.8 601C86 601 43 601 21.5 601L0 601Z" fill="#6600ff"></path></svg>