<svg xmlns="http://www.w3.org/2000/svg" xmlns:xlink="http://www.w3.org/1999/xlink" width="396" zoomAndPan="magnify" viewBox="0 0 297 72" height="96" preserveAspectRatio="xMidYMid meet" version="1.0"><defs><g/><clipPath id="e19664d12d"><path d="M 2.058594 0 L 292.898438 0 L 292.898438 71.695312 L 2.058594 71.695312 Z M 2.058594 0 " clip-rule="nonzero"/></clipPath><clipPath id="d66c30cd37"><path d="M 10.355469 6.585938 L 159.648438 6.585938 L 159.648438 65.113281 L 10.355469 65.113281 Z M 10.355469 6.585938 " clip-rule="nonzero"/></clipPath></defs><g clip-path="url(#e19664d12d)"><path stroke-linecap="butt" transform="matrix(0.75, 0, 0, 0.75, 2.0592, 0.000002)" fill="none" stroke-linejoin="miter" d="M -0.000807899 -0.00000266667 L 387.785667 -0.00000266667 L 387.785667 95.593751 L -0.000807899 95.593751 Z M -0.000807899 -0.00000266667 " stroke="#171717" stroke-width="6" stroke-opacity="1" stroke-miterlimit="4"/></g><g clip-path="url(#d66c30cd37)"><path fill="#171717" d="M 10.355469 6.585938 L 159.640625 6.585938 L 159.640625 65.113281 L 10.355469 65.113281 Z M 10.355469 6.585938 " fill-opacity="1" fill-rule="nonzero"/></g><g fill="#ffffff" fill-opacity="1"><g transform="translate(14.438731, 45.086999)"><g><path d="M 11.625 0.359375 C 10.1875 0.359375 8.859375 0.109375 7.640625 -0.390625 C 6.421875 -0.898438 5.363281 -1.609375 4.46875 -2.515625 C 3.570312 -3.421875 2.875 -4.492188 2.375 -5.734375 C 1.875 -6.984375 1.625 -8.347656 1.625 -9.828125 C 1.625 -11.304688 1.867188 -12.664062 2.359375 -13.90625 C 2.847656 -15.144531 3.539062 -16.222656 4.4375 -17.140625 C 5.332031 -18.054688 6.382812 -18.765625 7.59375 -19.265625 C 8.800781 -19.773438 10.128906 -20.03125 11.578125 -20.03125 C 13.078125 -20.03125 14.460938 -19.757812 15.734375 -19.21875 C 17.003906 -18.675781 18.101562 -17.914062 19.03125 -16.9375 C 19.957031 -15.96875 20.628906 -14.835938 21.046875 -13.546875 L 18.34375 -13.546875 C 17.726562 -14.816406 16.835938 -15.800781 15.671875 -16.5 C 14.515625 -17.207031 13.175781 -17.5625 11.65625 -17.5625 C 10.195312 -17.5625 8.898438 -17.234375 7.765625 -16.578125 C 6.628906 -15.921875 5.742188 -15.007812 5.109375 -13.84375 C 4.472656 -12.6875 4.15625 -11.347656 4.15625 -9.828125 C 4.15625 -8.316406 4.476562 -6.976562 5.125 -5.8125 C 5.769531 -4.65625 6.660156 -3.75 7.796875 -3.09375 C 8.929688 -2.4375 10.226562 -2.109375 11.6875 -2.109375 C 13.019531 -2.109375 14.195312 -2.367188 15.21875 -2.890625 C 16.25 -3.421875 17.085938 -4.148438 17.734375 -5.078125 C 18.378906 -6.003906 18.789062 -7.082031 18.96875 -8.3125 L 10.953125 -8.3125 L 10.953125 -10.671875 L 21.625 -10.671875 C 21.664062 -8.515625 21.269531 -6.609375 20.4375 -4.953125 C 19.601562 -3.296875 18.429688 -1.992188 16.921875 -1.046875 C 15.421875 -0.109375 13.65625 0.359375 11.625 0.359375 Z M 11.625 0.359375 "/></g></g></g><g fill="#ffffff" fill-opacity="1"><g transform="translate(39.737949, 45.086999)"><g><path d="M 0.484375 0 L 8.5625 -19.671875 L 10.875 -19.671875 L 18.96875 0 L 16.34375 0 L 14.5 -4.46875 L 4.921875 -4.46875 L 3.125 0 Z M 5.875 -6.765625 L 13.5625 -6.765625 L 9.71875 -16.203125 Z M 5.875 -6.765625 "/></g></g></g><g fill="#ffffff" fill-opacity="1"><g transform="translate(61.302777, 45.086999)"><g><path d="M 2.859375 0 L 2.859375 -19.671875 L 5.34375 -19.671875 L 5.34375 -2.359375 L 14.890625 -2.359375 L 14.890625 0 Z M 2.859375 0 "/></g></g></g><g fill="#ffffff" fill-opacity="1"><g transform="translate(79.189382, 45.086999)"><g><path d="M 2.859375 0 L 2.859375 -19.671875 L 5.34375 -19.671875 L 5.34375 -2.359375 L 14.890625 -2.359375 L 14.890625 0 Z M 2.859375 0 "/></g></g></g><g fill="#ffffff" fill-opacity="1"><g transform="translate(97.075987, 45.086999)"><g><path d="M 2.859375 0 L 2.859375 -19.671875 L 14.8125 -19.671875 L 14.8125 -17.359375 L 5.34375 -17.359375 L 5.34375 -11.15625 L 14.109375 -11.15625 L 14.109375 -8.875 L 5.34375 -8.875 L 5.34375 -2.296875 L 15.109375 -2.296875 L 15.109375 0 Z M 2.859375 0 "/></g></g></g><g fill="#ffffff" fill-opacity="1"><g transform="translate(116.141866, 45.086999)"><g><path d="M 2.859375 0 L 2.859375 -19.671875 L 10.359375 -19.671875 C 11.734375 -19.671875 12.925781 -19.410156 13.9375 -18.890625 C 14.945312 -18.378906 15.734375 -17.65625 16.296875 -16.71875 C 16.859375 -15.78125 17.140625 -14.65625 17.140625 -13.34375 C 17.140625 -11.75 16.726562 -10.429688 15.90625 -9.390625 C 15.082031 -8.359375 13.945312 -7.660156 12.5 -7.296875 L 17.453125 0 L 14.46875 0 L 9.671875 -7.046875 L 5.34375 -7.046875 L 5.34375 0 Z M 5.34375 -9.40625 L 10.078125 -9.40625 C 11.523438 -9.40625 12.640625 -9.75 13.421875 -10.4375 C 14.210938 -11.125 14.609375 -12.09375 14.609375 -13.34375 C 14.609375 -14.601562 14.210938 -15.578125 13.421875 -16.265625 C 12.640625 -16.960938 11.523438 -17.3125 10.078125 -17.3125 L 5.34375 -17.3125 Z M 5.34375 -9.40625 "/></g></g></g><g fill="#ffffff" fill-opacity="1"><g transform="translate(137.397847, 45.086999)"><g><path d="M 7.859375 0 L 7.859375 -7.078125 L 0.484375 -19.671875 L 3.34375 -19.671875 L 6.546875 -14.15625 L 9.109375 -9.71875 L 14.890625 -19.671875 L 17.671875 -19.671875 L 10.28125 -7.078125 L 10.28125 0 Z M 7.859375 0 "/></g></g></g><g fill="#171717" fill-opacity="1"><g transform="translate(168.867294, 45.119986)"><g><path d="M 9.125 0.421875 C 6.582031 0.421875 4.585938 -0.179688 3.140625 -1.390625 C 1.703125 -2.597656 0.984375 -4.257812 0.984375 -6.375 L 6.46875 -6.375 C 6.46875 -5.625 6.695312 -5.035156 7.15625 -4.609375 C 7.613281 -4.191406 8.242188 -3.984375 9.046875 -3.984375 C 9.734375 -3.984375 10.273438 -4.117188 10.671875 -4.390625 C 11.066406 -4.660156 11.265625 -5.039062 11.265625 -5.53125 C 11.265625 -6.613281 10.082031 -7.390625 7.71875 -7.859375 C 3.320312 -8.703125 1.125 -10.773438 1.125 -14.078125 C 1.125 -15.929688 1.789062 -17.394531 3.125 -18.46875 C 4.46875 -19.550781 6.300781 -20.09375 8.625 -20.09375 C 10.238281 -20.09375 11.640625 -19.816406 12.828125 -19.265625 C 14.015625 -18.722656 14.929688 -17.953125 15.578125 -16.953125 C 16.222656 -15.953125 16.546875 -14.773438 16.546875 -13.421875 L 11.203125 -13.421875 C 11.203125 -14.171875 10.988281 -14.742188 10.5625 -15.140625 C 10.132812 -15.535156 9.523438 -15.734375 8.734375 -15.734375 C 8.078125 -15.734375 7.550781 -15.597656 7.15625 -15.328125 C 6.769531 -15.054688 6.578125 -14.675781 6.578125 -14.1875 C 6.578125 -13.675781 6.835938 -13.253906 7.359375 -12.921875 C 7.878906 -12.585938 8.769531 -12.28125 10.03125 -12 C 12.425781 -11.46875 14.171875 -10.703125 15.265625 -9.703125 C 16.359375 -8.703125 16.90625 -7.390625 16.90625 -5.765625 C 16.90625 -3.828125 16.222656 -2.3125 14.859375 -1.21875 C 13.492188 -0.125 11.582031 0.421875 9.125 0.421875 Z M 9.125 0.421875 "/></g></g></g><g fill="#171717" fill-opacity="1"><g transform="translate(186.813621, 45.119986)"><g><path d="M 6.765625 0 L 6.765625 -14.40625 L 0.78125 -14.40625 L 0.78125 -19.671875 L 18.40625 -19.671875 L 18.40625 -14.40625 L 12.421875 -14.40625 L 12.421875 0 Z M 6.765625 0 "/></g></g></g><g fill="#171717" fill-opacity="1"><g transform="translate(205.995687, 45.119986)"><g><path d="M 10.53125 0.421875 C 8.769531 0.421875 7.242188 0.0820312 5.953125 -0.59375 C 4.660156 -1.28125 3.660156 -2.257812 2.953125 -3.53125 C 2.253906 -4.8125 1.90625 -6.332031 1.90625 -8.09375 L 1.90625 -19.671875 L 7.578125 -19.671875 L 7.578125 -8.453125 C 7.578125 -6.078125 8.5625 -4.890625 10.53125 -4.890625 C 12.5 -4.890625 13.484375 -6.078125 13.484375 -8.453125 L 13.484375 -19.671875 L 19.125 -19.671875 L 19.125 -8.09375 C 19.125 -6.332031 18.773438 -4.8125 18.078125 -3.53125 C 17.390625 -2.257812 16.40625 -1.28125 15.125 -0.59375 C 13.84375 0.0820312 12.3125 0.421875 10.53125 0.421875 Z M 10.53125 0.421875 "/></g></g></g><g fill="#171717" fill-opacity="1"><g transform="translate(227.059454, 45.119986)"><g><path d="M 2.078125 0 L 2.078125 -19.671875 L 10.421875 -19.671875 C 12.535156 -19.671875 14.382812 -19.257812 15.96875 -18.4375 C 17.550781 -17.625 18.78125 -16.476562 19.65625 -15 C 20.539062 -13.519531 20.984375 -11.796875 20.984375 -9.828125 C 20.984375 -7.867188 20.539062 -6.144531 19.65625 -4.65625 C 18.78125 -3.175781 17.550781 -2.03125 15.96875 -1.21875 C 14.382812 -0.40625 12.535156 0 10.421875 0 Z M 7.75 -5.078125 L 10.25 -5.078125 C 11.75 -5.078125 12.945312 -5.507812 13.84375 -6.375 C 14.75 -7.238281 15.203125 -8.390625 15.203125 -9.828125 C 15.203125 -11.273438 14.75 -12.425781 13.84375 -13.28125 C 12.945312 -14.144531 11.75 -14.578125 10.25 -14.578125 L 7.75 -14.578125 Z M 7.75 -5.078125 "/></g></g></g><g fill="#171717" fill-opacity="1"><g transform="translate(248.993845, 45.119986)"><g><path d="M 2.078125 0 L 2.078125 -19.671875 L 7.75 -19.671875 L 7.75 0 Z M 2.078125 0 "/></g></g></g><g fill="#171717" fill-opacity="1"><g transform="translate(258.823606, 45.119986)"><g><path d="M 11.65625 0.421875 C 10.082031 0.421875 8.644531 0.175781 7.34375 -0.3125 C 6.039062 -0.8125 4.910156 -1.519531 3.953125 -2.4375 C 3.003906 -3.363281 2.265625 -4.453125 1.734375 -5.703125 C 1.210938 -6.953125 0.953125 -8.328125 0.953125 -9.828125 C 0.953125 -11.328125 1.210938 -12.703125 1.734375 -13.953125 C 2.265625 -15.210938 3.003906 -16.300781 3.953125 -17.21875 C 4.910156 -18.132812 6.039062 -18.84375 7.34375 -19.34375 C 8.644531 -19.84375 10.082031 -20.09375 11.65625 -20.09375 C 13.226562 -20.09375 14.664062 -19.84375 15.96875 -19.34375 C 17.269531 -18.84375 18.398438 -18.132812 19.359375 -17.21875 C 20.316406 -16.300781 21.054688 -15.210938 21.578125 -13.953125 C 22.097656 -12.703125 22.359375 -11.328125 22.359375 -9.828125 C 22.359375 -8.328125 22.097656 -6.953125 21.578125 -5.703125 C 21.054688 -4.453125 20.316406 -3.363281 19.359375 -2.4375 C 18.398438 -1.519531 17.269531 -0.8125 15.96875 -0.3125 C 14.664062 0.175781 13.226562 0.421875 11.65625 0.421875 Z M 6.71875 -9.828125 C 6.71875 -8.859375 6.925781 -7.992188 7.34375 -7.234375 C 7.769531 -6.472656 8.351562 -5.878906 9.09375 -5.453125 C 9.84375 -5.035156 10.695312 -4.828125 11.65625 -4.828125 C 12.632812 -4.828125 13.492188 -5.035156 14.234375 -5.453125 C 14.972656 -5.878906 15.550781 -6.472656 15.96875 -7.234375 C 16.394531 -7.992188 16.609375 -8.859375 16.609375 -9.828125 C 16.609375 -10.828125 16.394531 -11.695312 15.96875 -12.4375 C 15.550781 -13.1875 14.972656 -13.769531 14.234375 -14.1875 C 13.492188 -14.613281 12.632812 -14.828125 11.65625 -14.828125 C 10.695312 -14.828125 9.84375 -14.613281 9.09375 -14.1875 C 8.351562 -13.769531 7.769531 -13.1875 7.34375 -12.4375 C 6.925781 -11.695312 6.71875 -10.828125 6.71875 -9.828125 Z M 6.71875 -9.828125 "/></g></g></g></svg>